{"title":"Quarantine.2.The.Terminal.2011","uid":6496807,"size":742143914,"categoryP":"video","categoryS":"movies","magnet":"?xt=urn:btih:468ca97e1491da96598d68ba74f098e68e00f30a&amp;dn=Quarantine.2.The.Terminal.2011&amp;tr=udp%3A%2F%2Ftracker.openbittorrent.com%3A80&amp;tr=udp%3A%2F%2Fopen.demonii.com%3A1337&amp;tr=udp%3A%2F%2Ftracker.coppersurfer.tk%3A6969&amp;tr=udp%3A%2F%2Fexodus.desync.com%3A6969","seeders":0,"leechers":1,"uploader":"musy2","files":1,"time":1309103531,"description":"Description:\nA plane is taken over by a mysterious virus. When the plane lands it is placed under quarantine. Now a group of survivors must band together to survive the quarantine\n\nGeneral\nComplete name: E:\\\\Quarantine.2.The.Terminal.2011.VODRiP.XviD-SiC.avi\nFormat: AVI\nFormat/Info: Audio Video Interleave\nFile size: 708 MiB\nDuration: 1h 26mn\nOverall bit rate: 1 149 Kbps\nWriting application: Lavf52.22.1\nWriting library: VirtualDub build 32842/release\n\nVideo\nID: 0\nFormat: MPEG-4 Visual\nFormat profile: Simple@L1\nFormat settings, BVOP: No\nFormat settings, QPel: No\nFormat settings, GMC: No warppoints\nFormat settings, Matrix: Default (H.263)\nCodec ID: XVID\nCodec ID/Hint: XviD\nDuration: 1h 26mn\nBit rate: 1 008 Kbps\nWidth: 850 pixels\nHeight: 474 pixels\nDisplay aspect ratio: 16:9\nFrame rate: 25.000 fps\nColor space: YUV\nChroma subsampling: 4:2:0\nBit depth: 8 bits\nScan type: Progressive\nCompression mode: Lossy\nBits/(Pixel*Frame): 0.100\nStream size: 621 MiB (88%)\nWriting library: Lavc52.0.0\n\nAudio\nID: 1\nFormat: MPEG Audio\nFormat version: Version 1\nFormat profile: Layer 3\nCodec ID: 55\nCodec ID/Hint: MP3\nDuration: 1h 26mn\nBit rate mode: Constant\nBit rate: 128 Kbps\nChannel(s): 2 channels\nSampling rate: 44.1 KHz\nCompression mode: Lossy\nStream size: 78.9 MiB (11%)\nAlignment: Aligned on interleaves\nInterleave, duration: 26 ms (0.65 video frame)\nInterleave, preload duration: 522 ms\n\n\n\n\n &lt;a href=&quot;\nhttp://leetleech.org/images/05923488659244140874.png&quot; rel=&quot;nofollow&quot; target=&quot;_NEW&quot;&gt;\nhttp://leetleech.org/images/05923488659244140874.png&lt;/a&gt; &lt;a href=&quot;\nhttp://leetleech.org/images/35860127758829206478.png&quot; rel=&quot;nofollow&quot; target=&quot;_NEW&quot;&gt;\nhttp://leetleech.org/images/35860127758829206478.png&lt;/a&gt; &lt;a href=&quot;\nhttp://leetleech.org/images/98801985623506904077.png&quot; rel=&quot;nofollow&quot; target=&quot;_NEW&quot;&gt;\nhttp://leetleech.org/images/98801985623506904077.png&lt;/a&gt; &lt;a href=&quot;\nhttp://leetleech.org/images/22891772109802737905.png&quot; rel=&quot;nofollow&quot; target=&quot;_NEW&quot;&gt;\nhttp://leetleech.org/images/22891772109802737905.png&lt;/a&gt; &lt;a href=&quot;\nhttp://leetleech.org/images/94854121344507239999.png&quot; rel=&quot;nofollow&quot; target=&quot;_NEW&quot;&gt;\nhttp://leetleech.org/images/94854121344507239999.png&lt;/a&gt;","torrent":{"xt":"urn:btih:468ca97e1491da96598d68ba74f098e68e00f30a","amp;dn":"Quarantine.2.The.Terminal.2011","amp;tr":["udp%3A%2F%2Ftracker.openbittorrent.com%3A80","udp%3A%2F%2Fopen.demonii.com%3A1337","udp%3A%2F%2Ftracker.coppersurfer.tk%3A6969","udp%3A%2F%2Fexodus.desync.com%3A6969"],"infoHash":"468ca97e1491da96598d68ba74f098e68e00f30a","infoHashBuffer":{"type":"Buffer","data":[70,140,169,126,20,145,218,150,89,141,104,186,116,240,152,230,142,0,243,10]},"announce":[],"urlList":[]}}